<svg data-v-423bf9ae="" xmlns="http://www.w3.org/2000/svg" viewBox="0 0 431 90" class="iconLeft"><!----><!----><!----><g data-v-423bf9ae="" id="459e91e8-f1bf-4e96-9c02-83cce0126caf" fill="black" transform="matrix(4.198740482330322,0,0,4.198740482330322,106.34709930419922,9.1217622756958)"><path d="M7.87 1.40L7.87 1.40Q8.19 1.40 8.39 1.60L8.39 1.60L8.39 1.60Q8.58 1.79 8.58 2.11L8.58 2.11L8.58 8.50L8.58 8.50Q8.58 9.59 8.07 10.48L8.07 10.48L8.07 10.48Q7.56 11.37 6.69 11.88L6.69 11.88L6.69 11.88Q5.81 12.39 4.73 12.39L4.73 12.39L4.73 12.39Q3.65 12.39 2.77 11.88L2.77 11.88L2.77 11.88Q1.88 11.37 1.37 10.48L1.37 10.48L1.37 10.48Q0.87 9.59 0.87 8.50L0.87 8.50L0.87 8.50Q0.87 7.41 1.34 6.52L1.34 6.52L1.34 6.52Q1.81 5.63 2.63 5.12L2.63 5.12L2.63 5.12Q3.44 4.62 4.45 4.62L4.45 4.62L4.45 4.62Q5.26 4.62 5.96 4.96L5.96 4.96L5.96 4.96Q6.66 5.29 7.15 5.89L7.15 5.89L7.15 2.11L7.15 2.11Q7.15 1.79 7.36 1.60L7.36 1.60L7.36 1.60Q7.56 1.40 7.87 1.40L7.87 1.40ZM4.73 11.13L4.73 11.13Q5.43 11.13 6.00 10.79L6.00 10.79L6.00 10.79Q6.57 10.44 6.89 9.84L6.89 9.84L6.89 9.84Q7.21 9.24 7.21 8.50L7.21 8.50L7.21 8.50Q7.21 7.76 6.89 7.16L6.89 7.16L6.89 7.16Q6.57 6.57 6.00 6.22L6.00 6.22L6.00 6.22Q5.43 5.88 4.73 5.88L4.73 5.88L4.73 5.88Q4.03 5.88 3.46 6.22L3.46 6.22L3.46 6.22Q2.90 6.57 2.57 7.16L2.57 7.16L2.57 7.16Q2.24 7.76 2.24 8.50L2.24 8.50L2.24 8.50Q2.24 9.24 2.57 9.84L2.57 9.84L2.57 9.84Q2.90 10.44 3.46 10.79L3.46 10.79L3.46 10.79Q4.03 11.13 4.73 11.13L4.73 11.13ZM17.98 8.39L17.98 8.39Q17.98 8.65 17.79 8.83L17.79 8.83L17.79 8.83Q17.61 9.00 17.33 9.00L17.33 9.00L12.01 9.00L12.01 9.00Q12.17 9.98 12.90 10.58L12.90 10.58L12.90 10.58Q13.64 11.19 14.70 11.19L14.70 11.19L14.70 11.19Q15.12 11.19 15.58 11.03L15.58 11.03L15.58 11.03Q16.03 10.88 16.32 10.65L16.32 10.65L16.32 10.65Q16.52 10.50 16.79 10.50L16.79 10.50L16.79 10.50Q17.05 10.50 17.21 10.64L17.21 10.64L17.21 10.64Q17.46 10.85 17.46 11.12L17.46 11.12L17.46 11.12Q17.46 11.37 17.23 11.54L17.23 11.54L17.23 11.54Q16.76 11.91 16.05 12.15L16.05 12.15L16.05 12.15Q15.34 12.39 14.70 12.39L14.70 12.39L14.70 12.39Q13.55 12.39 12.64 11.89L12.64 11.89L12.64 11.89Q11.73 11.40 11.22 10.51L11.22 10.51L11.22 10.51Q10.71 9.63 10.71 8.51L10.71 8.51L10.71 8.51Q10.71 7.39 11.19 6.50L11.19 6.50L11.19 6.50Q11.68 5.61 12.54 5.12L12.54 5.12L12.54 5.12Q13.40 4.62 14.49 4.62L14.49 4.62L14.49 4.62Q15.57 4.62 16.35 5.10L16.35 5.10L16.35 5.10Q17.14 5.57 17.56 6.43L17.56 6.43L17.56 6.43Q17.98 7.28 17.98 8.39L17.98 8.39ZM14.49 5.82L14.49 5.82Q13.47 5.82 12.83 6.38L12.83 6.38L12.83 6.38Q12.19 6.94 12.03 7.88L12.03 7.88L16.69 7.88L16.69 7.88Q16.56 6.94 15.99 6.38L15.99 6.38L15.99 6.38Q15.41 5.82 14.49 5.82L14.49 5.82ZM23.65 4.62L23.65 4.62Q24.72 4.62 25.61 5.13L25.61 5.13L25.61 5.13Q26.50 5.64 27.01 6.53L27.01 6.53L27.01 6.53Q27.51 7.42 27.51 8.51L27.51 8.51L27.51 8.51Q27.51 9.60 27.04 10.49L27.04 10.49L27.04 10.49Q26.57 11.38 25.75 11.89L25.75 11.89L25.75 11.89Q24.93 12.39 23.93 12.39L23.93 12.39L23.93 12.39Q23.11 12.39 22.41 12.05L22.41 12.05L22.41 12.05Q21.71 11.72 21.22 11.12L21.22 11.12L21.22 14.90L21.22 14.90Q21.22 15.22 21.03 15.41L21.03 15.41L21.03 15.41Q20.83 15.61 20.51 15.61L20.51 15.61L20.51 15.61Q20.20 15.61 20.00 15.41L20.00 15.41L20.00 15.41Q19.80 15.22 19.80 14.90L19.80 14.90L19.80 8.51L19.80 8.51Q19.80 7.42 20.31 6.53L20.31 6.53L20.31 6.53Q20.82 5.64 21.69 5.13L21.69 5.13L21.69 5.13Q22.57 4.62 23.65 4.62L23.65 4.62ZM23.65 11.13L23.65 11.13Q24.35 11.13 24.91 10.79L24.91 10.79L24.91 10.79Q25.48 10.44 25.81 9.85L25.81 9.85L25.81 9.85Q26.14 9.25 26.14 8.51L26.14 8.51L26.14 8.51Q26.14 7.77 25.81 7.17L25.81 7.17L25.81 7.17Q25.48 6.57 24.91 6.22L24.91 6.22L24.91 6.22Q24.35 5.88 23.65 5.88L23.65 5.88L23.65 5.88Q22.95 5.88 22.38 6.22L22.38 6.22L22.38 6.22Q21.81 6.57 21.49 7.17L21.49 7.17L21.49 7.17Q21.17 7.77 21.17 8.51L21.17 8.51L21.17 8.51Q21.17 9.25 21.49 9.85L21.49 9.85L21.49 9.85Q21.81 10.44 22.38 10.79L22.38 10.79L22.38 10.79Q22.95 11.13 23.65 11.13L23.65 11.13ZM29.36 2.10L29.36 2.10Q29.36 1.79 29.55 1.60L29.55 1.60L29.55 1.60Q29.75 1.40 30.06 1.40L30.06 1.40L30.06 1.40Q30.37 1.40 30.56 1.60L30.56 1.60L30.56 1.60Q30.76 1.79 30.76 2.10L30.76 2.10L30.76 9.74L30.76 9.74Q30.76 10.26 30.95 10.60L30.95 10.60L30.95 10.60Q31.15 10.93 31.46 10.93L31.46 10.93L31.81 10.93L31.81 10.93Q32.09 10.93 32.26 11.13L32.26 11.13L32.26 11.13Q32.44 11.33 32.44 11.63L32.44 11.63L32.44 11.63Q32.44 11.94 32.17 12.14L32.17 12.14L32.17 12.14Q31.91 12.33 31.49 12.33L31.49 12.33L31.46 12.33L31.46 12.33Q30.86 12.33 30.37 12.00L30.37 12.00L30.37 12.00Q29.89 11.68 29.62 11.08L29.62 11.08L29.62 11.08Q29.36 10.49 29.36 9.74L29.36 9.74L29.36 2.10ZM37.31 4.62L37.31 4.62Q38.42 4.62 39.29 5.12L39.29 5.12L39.29 5.12Q40.17 5.61 40.66 6.50L40.66 6.50L40.66 6.50Q41.16 7.38 41.16 8.51L41.16 8.51L41.16 8.51Q41.16 9.63 40.67 10.51L40.67 10.51L40.67 10.51Q40.18 11.40 39.31 11.89L39.31 11.89L39.31 11.89Q38.43 12.39 37.31 12.39L37.31 12.39L37.31 12.39Q36.19 12.39 35.31 11.89L35.31 11.89L35.31 11.89Q34.43 11.40 33.94 10.51L33.94 10.51L33.94 10.51Q33.45 9.63 33.45 8.51L33.45 8.51L33.45 8.51Q33.45 7.38 33.94 6.50L33.94 6.50L33.94 6.50Q34.43 5.61 35.31 5.12L35.31 5.12L35.31 5.12Q36.19 4.62 37.31 4.62L37.31 4.62ZM37.31 5.88L37.31 5.88Q36.60 5.88 36.03 6.22L36.03 6.22L36.03 6.22Q35.46 6.55 35.14 7.15L35.14 7.15L35.14 7.15Q34.82 7.76 34.82 8.51L34.82 8.51L34.82 8.51Q34.82 9.27 35.14 9.86L35.14 9.86L35.14 9.86Q35.46 10.46 36.03 10.79L36.03 10.79L36.03 10.79Q36.60 11.13 37.31 11.13L37.31 11.13L37.31 11.13Q38.02 11.13 38.59 10.79L38.59 10.79L38.59 10.79Q39.16 10.46 39.47 9.86L39.47 9.86L39.47 9.86Q39.79 9.27 39.79 8.51L39.79 8.51L39.79 8.51Q39.79 7.76 39.47 7.15L39.47 7.15L39.47 7.15Q39.16 6.55 38.59 6.22L38.59 6.22L38.59 6.22Q38.02 5.88 37.31 5.88L37.31 5.88ZM49.14 4.75L49.14 4.75Q49.57 4.91 49.57 5.29L49.57 5.29L49.57 5.29Q49.57 5.43 49.49 5.63L49.49 5.63L45.21 15.26L45.21 15.26Q45.04 15.69 44.66 15.69L44.66 15.69L44.66 15.69Q44.52 15.69 44.32 15.61L44.32 15.61L44.32 15.61Q43.90 15.43 43.90 15.06L43.90 15.06L43.90 15.06Q43.90 14.90 43.99 14.73L43.99 14.73L45.39 11.58L42.24 5.60L42.24 5.60Q42.17 5.47 42.17 5.31L42.17 5.31L42.17 5.31Q42.17 5.12 42.28 4.97L42.28 4.97L42.28 4.97Q42.39 4.82 42.57 4.73L42.57 4.73L42.57 4.73Q42.70 4.68 42.85 4.68L42.85 4.68L42.85 4.68Q43.25 4.68 43.44 5.07L43.44 5.07L46.00 10.16L48.26 5.08L48.26 5.08Q48.44 4.68 48.80 4.68L48.80 4.68L48.80 4.68Q48.99 4.68 49.14 4.75L49.14 4.75ZM58.88 4.61L58.88 4.61Q60.10 4.61 60.85 5.40L60.85 5.40L60.85 5.40Q61.60 6.20 61.60 7.63L61.60 7.63L61.60 11.63L61.60 11.63Q61.60 11.94 61.40 12.14L61.40 12.14L61.40 12.14Q61.21 12.35 60.89 12.35L60.89 12.35L60.89 12.35Q60.58 12.35 60.38 12.14L60.38 12.14L60.38 12.14Q60.17 11.94 60.17 11.63L60.17 11.63L60.17 7.63L60.17 7.63Q60.17 6.78 59.75 6.33L59.75 6.33L59.75 6.33Q59.32 5.89 58.60 5.89L58.60 5.89L58.60 5.89Q57.88 5.89 57.41 6.40L57.41 6.40L57.41 6.40Q56.94 6.90 56.94 7.69L56.94 7.69L56.94 11.63L56.94 11.63Q56.94 11.94 56.74 12.14L56.74 12.14L56.74 12.14Q56.55 12.35 56.22 12.35L56.22 12.35L56.22 12.35Q55.92 12.35 55.71 12.14L55.71 12.14L55.71 12.14Q55.51 11.94 55.51 11.63L55.51 11.63L55.51 7.63L55.51 7.63Q55.51 6.78 55.08 6.33L55.08 6.33L55.08 6.33Q54.66 5.89 53.94 5.89L53.94 5.89L53.94 5.89Q53.20 5.89 52.73 6.40L52.73 6.40L52.73 6.40Q52.26 6.90 52.26 7.69L52.26 7.69L52.26 11.63L52.26 11.63Q52.26 11.94 52.07 12.14L52.07 12.14L52.07 12.14Q51.87 12.35 51.55 12.35L51.55 12.35L51.55 12.35Q51.24 12.35 51.04 12.14L51.04 12.14L51.04 12.14Q50.83 11.94 50.83 11.63L50.83 11.63L50.83 5.40L50.83 5.40Q50.83 5.08 51.04 4.89L51.04 4.89L51.04 4.89Q51.24 4.69 51.55 4.69L51.55 4.69L51.55 4.69Q51.86 4.69 52.05 4.88L52.05 4.88L52.05 4.88Q52.25 5.07 52.26 5.38L52.26 5.38L52.26 5.38Q52.63 5.01 53.13 4.81L53.13 4.81L53.13 4.81Q53.63 4.61 54.22 4.61L54.22 4.61L54.22 4.61Q54.94 4.61 55.50 4.89L55.50 4.89L55.50 4.89Q56.07 5.18 56.43 5.71L56.43 5.71L56.43 5.71Q56.85 5.19 57.48 4.90L57.48 4.90L57.48 4.90Q58.11 4.61 58.88 4.61L58.88 4.61ZM67.44 4.62L67.44 4.62Q68.52 4.62 69.39 5.13L69.39 5.13L69.39 5.13Q70.27 5.64 70.78 6.53L70.78 6.53L70.78 6.53Q71.29 7.42 71.29 8.51L71.29 8.51L71.29 11.63L71.29 11.63Q71.29 11.94 71.09 12.14L71.09 12.14L71.09 12.14Q70.88 12.35 70.57 12.35L70.57 12.35L70.57 12.35Q70.27 12.35 70.06 12.14L70.06 12.14L70.06 12.14Q69.86 11.94 69.86 11.63L69.86 11.63L69.86 11.12L69.86 11.12Q69.37 11.72 68.67 12.05L68.67 12.05L68.67 12.05Q67.97 12.39 67.16 12.39L67.16 12.39L67.16 12.39Q66.15 12.39 65.33 11.89L65.33 11.89L65.33 11.89Q64.51 11.38 64.04 10.49L64.04 10.49L64.04 10.49Q63.57 9.60 63.57 8.51L63.57 8.51L63.57 8.51Q63.57 7.42 64.08 6.53L64.08 6.53L64.08 6.53Q64.58 5.64 65.47 5.13L65.47 5.13L65.47 5.13Q66.36 4.62 67.44 4.62L67.44 4.62ZM67.44 11.13L67.44 11.13Q68.14 11.13 68.70 10.79L68.70 10.79L68.70 10.79Q69.27 10.44 69.59 9.85L69.59 9.85L69.59 9.85Q69.92 9.25 69.92 8.51L69.92 8.51L69.92 8.51Q69.92 7.77 69.59 7.17L69.59 7.17L69.59 7.17Q69.27 6.57 68.70 6.22L68.70 6.22L68.70 6.22Q68.14 5.88 67.44 5.88L67.44 5.88L67.44 5.88Q66.74 5.88 66.17 6.22L66.17 6.22L66.17 6.22Q65.60 6.57 65.28 7.17L65.28 7.17L65.28 7.17Q64.95 7.77 64.95 8.51L64.95 8.51L64.95 8.51Q64.95 9.25 65.28 9.85L65.28 9.85L65.28 9.85Q65.60 10.44 66.17 10.79L66.17 10.79L66.17 10.79Q66.74 11.13 67.44 11.13L67.44 11.13ZM76.68 10.93L76.68 10.93Q76.93 10.93 77.11 11.13L77.11 11.13L77.11 11.13Q77.28 11.33 77.28 11.63L77.28 11.63L77.28 11.63Q77.28 11.94 77.05 12.14L77.05 12.14L77.05 12.14Q76.82 12.33 76.45 12.33L76.45 12.33L76.20 12.33L76.20 12.33Q75.52 12.33 74.95 11.98L74.95 11.98L74.95 11.98Q74.38 11.62 74.06 11.00L74.06 11.00L74.06 11.00Q73.74 10.39 73.74 9.62L73.74 9.62L73.74 6.16L73.09 6.16L73.09 6.16Q72.80 6.16 72.62 5.99L72.62 5.99L72.62 5.99Q72.44 5.82 72.44 5.57L72.44 5.57L72.44 5.57Q72.44 5.29 72.62 5.12L72.62 5.12L72.62 5.12Q72.80 4.96 73.09 4.96L73.09 4.96L73.74 4.96L73.74 2.94L73.74 2.94Q73.74 2.63 73.93 2.44L73.93 2.44L73.93 2.44Q74.13 2.24 74.44 2.24L74.44 2.24L74.44 2.24Q74.75 2.24 74.94 2.44L74.94 2.44L74.94 2.44Q75.14 2.63 75.14 2.94L75.14 2.94L75.14 4.96L76.33 4.96L76.33 4.96Q76.62 4.96 76.80 5.12L76.80 5.12L76.80 5.12Q76.99 5.29 76.99 5.57L76.99 5.57L76.99 5.57Q76.99 5.82 76.80 5.99L76.80 5.99L76.80 5.99Q76.62 6.16 76.33 6.16L76.33 6.16L75.14 6.16L75.14 9.62L75.14 9.62Q75.14 10.18 75.45 10.56L75.45 10.56L75.45 10.56Q75.75 10.93 76.20 10.93L76.20 10.93L76.68 10.93Z"></path></g><!----><g data-v-423bf9ae="" id="a46a27af-4bb2-4abf-9222-4f31abda9fe5" transform="matrix(1.1546010971069336,0,0,1.1546010971069336,-12.704630851745605,-12.704630851745605)" stroke="none" fill="black"><path d="M50 11.026c-21.525 0-38.974 17.449-38.974 38.974 0 12.283 5.688 23.232 14.567 30.376l-14.567 8.599H50c21.525 0 38.975-17.449 38.975-38.975 0-21.525-17.452-38.974-38.975-38.974zm-.079 54.477c-8.562 0-15.502-6.94-15.502-15.503 0-.452.036-.896.076-1.337h-2.599l4.52-6.369 4.52 6.369h-2.647c-.052.439-.089.883-.089 1.337 0 6.476 5.249 11.724 11.723 11.724a11.63 11.63 0 0 0 8.461-3.637l2.209 3.11c-2.775 2.659-6.522 4.306-10.672 4.306zM63.586 57.5l-4.519-6.368h2.521c.036-.372.057-.75.057-1.132 0-6.474-5.249-11.724-11.724-11.724-3.202 0-6.122 1.363-8.249 3.489l-2.236-3.146c2.761-2.548 6.432-4.122 10.485-4.122 8.562 0 15.503 6.94 15.503 15.502 0 .382-.031.757-.059 1.132h2.739L63.586 57.5z"></path></g><!----></svg>